<svg id="Capa_1" enable-background="new 0 0 512.01 512.01" height="512" viewBox="0 0 512.01 512.01" width="512" xmlns="http://www.w3.org/2000/svg"><g><g><path d="m129.73 340.33-72.22 71.74 42.43 42.43 72.09-71.62z" fill="#ff7b79"/><path d="m418.01 10-267.13 267.06 84.98 84.63 266.15-266.69v-85z" fill="#eefaff"/><g fill="#ffda8f"><path d="m108.52 319h-42.43l21.21-63h42.43c6.532 6.505-17.624-17.553 127.28 126.75v42.43l-64 21.21v-42.42c-21.356-21.464-23.16-23.282-84.49-84.97z"/><circle cx="55.01" cy="457" r="45"/></g></g><g><circle cx="372.01" cy="226" r="10"/><path d="m93.901 495.891c9.935-9.934 15.64-23.304 16.064-37.254l62.026-61.622 11.019 11.082v38.293c0 3.211 1.542 6.228 4.146 8.107 2.593 1.873 5.942 2.399 9 1.385l64-21.21c4.092-1.356 6.854-5.182 6.854-9.492v-42.43c0-2.66-1.06-5.209-2.944-7.086l-14.055-13.997 96.939-97.136c3.901-3.909 3.895-10.241-.015-14.142-3.909-3.902-10.24-3.895-14.142.014l-86.783 86.959v-56.221l176.143-176.141h55.75l-81.568 81.734c-3.901 3.909-3.895 10.241.015 14.142 3.908 3.9 10.239 3.895 14.142-.014l98.598-98.798c1.782-1.786 2.922-4.357 2.922-7.064v-85c0-5.523-4.478-10-10-10h-84c-2.663 0-5.202 1.08-7.038 2.899-.01.01-.022.019-.033.03l-260.075 260.005-14.08-14.02c-1.875-1.866-4.412-2.914-7.056-2.914h-42.43c-4.293 0-8.107 2.74-9.478 6.809l-21.21 63c-1.027 3.052-.522 6.411 1.356 9.026 1.879 2.615 4.902 4.165 8.122 4.165h38.271l11.223 11.287-62.169 61.756c-13.969.409-27.352 6.121-37.295 16.066-21.49 21.489-21.494 56.289 0 77.782 21.489 21.49 56.288 21.494 77.781 0zm334.109-475.891h64v65h-64zm-20 14.138v56.72l-176.142 176.142h-56.781zm-182 252.862v50.766l-50.977-50.766zm-117.49 22h-28.512l14.477-43h31.115l121.41 120.905v31.055l-44 14.582v-28.572c0-2.643-1.046-5.179-2.911-7.053-7.993-8.038-74.019-74.44-84.489-84.969-1.876-1.886-4.428-2.948-7.09-2.948zm21.166 45.47 28.202 28.363-52.483 52.142c-2.725-6.234-6.601-11.963-11.504-16.865-4.872-4.873-10.56-8.733-16.749-11.455zm-99.425 77.781c13.532-13.533 35.704-13.794 49.498 0 13.711 13.71 13.61 35.887 0 49.497-13.673 13.674-35.821 13.676-49.498 0-13.674-13.673-13.677-35.82 0-49.497z"/></g></g></svg>